<?xml version="1.0" encoding="UTF-8" standalone="no"?>
<svg
   xmlns:dc="http://purl.org/dc/elements/1.1/"
   xmlns:cc="http://creativecommons.org/ns#"
   xmlns:rdf="http://www.w3.org/1999/02/22-rdf-syntax-ns#"
   xmlns:svg="http://www.w3.org/2000/svg"
   xmlns="http://www.w3.org/2000/svg"
   xmlns:sodipodi="http://sodipodi.sourceforge.net/DTD/sodipodi-0.dtd"
   xmlns:inkscape="http://www.inkscape.org/namespaces/inkscape"
   version="1.1"
   width="240"
   height="240"
   viewBox="0 0 24 24"
   id="svg4"
   sodipodi:docname="1.svg"
   inkscape:version="0.92.4 (5da689c313, 2019-01-14)">
  <metadata
     id="metadata10">
    <rdf:RDF>
      <cc:Work
         rdf:about="">
        <dc:format>image/svg+xml</dc:format>
        <dc:type
           rdf:resource="http://purl.org/dc/dcmitype/StillImage" />
        <dc:title></dc:title>
      </cc:Work>
    </rdf:RDF>
  </metadata>
  <defs
     id="defs8" />
  <sodipodi:namedview
     pagecolor="#ffffff"
     bordercolor="#666666"
     borderopacity="1"
     objecttolerance="10"
     gridtolerance="10"
     guidetolerance="10"
     inkscape:pageopacity="0"
     inkscape:pageshadow="2"
     inkscape:window-width="1872"
     inkscape:window-height="1032"
     id="namedview6"
     showgrid="false"
     inkscape:snap-text-baseline="false"
     inkscape:zoom="0.98333333"
     inkscape:cx="120"
     inkscape:cy="120"
     inkscape:window-x="48"
     inkscape:window-y="48"
     inkscape:window-maximized="0"
     inkscape:current-layer="svg4" />
  <g
     id="g1035"
     transform="matrix(0.04702908,0,0,0.04702908,-0.0026,-0.029)">
    <g
       id="g978">
	<path
   id="path974"
   d="M 143.027,0 C 64.031,0 0,64.04 0,143.027 c 0,78.996 64.031,143.027 143.027,143.027 78.996,0 143.027,-64.031 143.027,-143.027 C 286.054,64.04 222.022,0 143.027,0 Z m 0,259.236 c -64.183,0 -116.209,-52.026 -116.209,-116.209 0,-64.183 52.026,-116.209 116.209,-116.209 64.183,0 116.209,52.026 116.209,116.209 0,64.183 -52.026,116.209 -116.209,116.209 z"
   style="fill:#2394bc"
   inkscape:connector-curvature="0" />

	<path
   id="path976"
   d="m 150.026,80.39 h -22.84 c -6.91,0 -10.933,7.044 -10.933,13.158 0,5.936 3.209,13.158 10.933,13.158 h 7.259 v 85.36 c 0,8.734 6.257,13.605 13.176,13.605 6.919,0 13.185,-4.881 13.185,-13.605 V 92.771 C 160.798,85.789 156.945,80.39 150.026,80.39 Z"
   style="fill:#2394bc"
   inkscape:connector-curvature="0" />

</g>
    <g
       id="g980">
</g>
    <g
       id="g982">
</g>
    <g
       id="g984">
</g>
    <g
       id="g986">
</g>
    <g
       id="g988">
</g>
    <g
       id="g990">
</g>
    <g
       id="g992">
</g>
    <g
       id="g994">
</g>
    <g
       id="g996">
</g>
    <g
       id="g998">
</g>
    <g
       id="g1000">
</g>
    <g
       id="g1002">
</g>
    <g
       id="g1004">
</g>
    <g
       id="g1006">
</g>
    <g
       id="g1008">
</g>
  </g>
  <path
     fill="#ffffff"
     d="M6,22A3,3 0 0,1 3,19C3,18.4 3.18,17.84 3.5,17.37L9,7.81V6A1,1 0 0,1 8,5V4A2,2 0 0,1 10,2H14A2,2 0 0,1 16,4V5A1,1 0 0,1 15,6V7.81L20.5,17.37C20.82,17.84 21,18.4 21,19A3,3 0 0,1 18,22H6M5,19A1,1 0 0,0 6,20H18A1,1 0 0,0 19,19C19,18.79 18.93,18.59 18.82,18.43L16.53,14.47L14,17L8.93,11.93L5.18,18.43C5.07,18.59 5,18.79 5,19M13,10A1,1 0 0,0 12,11A1,1 0 0,0 13,12A1,1 0 0,0 14,11A1,1 0 0,0 13,10Z"
     id="path2"
     style="fill:#d5ffff;fill-opacity:1" />
</svg>
