<?xml version="1.0" encoding="UTF-8" standalone="no"?>
<!-- Generator: Adobe Illustrator 19.0.0, SVG Export Plug-In . SVG Version: 6.00 Build 0)  -->

<svg
   xmlns:dc="http://purl.org/dc/elements/1.1/"
   xmlns:cc="http://creativecommons.org/ns#"
   xmlns:rdf="http://www.w3.org/1999/02/22-rdf-syntax-ns#"
   xmlns:svg="http://www.w3.org/2000/svg"
   xmlns="http://www.w3.org/2000/svg"
   xmlns:sodipodi="http://sodipodi.sourceforge.net/DTD/sodipodi-0.dtd"
   xmlns:inkscape="http://www.inkscape.org/namespaces/inkscape"
   version="1.1"
   id="Layer_1"
   x="0px"
   y="0px"
   viewBox="0 0 330.008 330.008"
   style="enable-background:new 0 0 330.008 330.008;"
   xml:space="preserve"
   sodipodi:docname="2.svg"
   inkscape:version="0.92.4 (5da689c313, 2019-01-14)"><metadata
   id="metadata48"><rdf:RDF><cc:Work
       rdf:about=""><dc:format>image/svg+xml</dc:format><dc:type
         rdf:resource="http://purl.org/dc/dcmitype/StillImage" /><dc:title></dc:title></cc:Work></rdf:RDF></metadata><defs
   id="defs46" /><sodipodi:namedview
   pagecolor="#ffffff"
   bordercolor="#666666"
   borderopacity="1"
   objecttolerance="10"
   gridtolerance="10"
   guidetolerance="10"
   inkscape:pageopacity="0"
   inkscape:pageshadow="2"
   inkscape:window-width="1872"
   inkscape:window-height="1032"
   id="namedview44"
   showgrid="false"
   inkscape:zoom="0.71513419"
   inkscape:cx="-190.87327"
   inkscape:cy="109.07044"
   inkscape:window-x="48"
   inkscape:window-y="48"
   inkscape:window-maximized="0"
   inkscape:current-layer="Layer_1" />
<g
   id="XMLID_924_"
   style="fill:#c9ffff;fill-opacity:1">
	<g
   id="XMLID_925_"
   style="fill:#c9ffff;fill-opacity:1">
		<path
   id="XMLID_926_"
   d="M315.008,300.004h-55.242c42.45-29.886,70.242-79.258,70.242-135.004    c0-90.979-74.017-164.996-164.996-164.996C74.024,0.004,0,74.021,0,165c0,90.983,74.024,165.004,165.012,165.004h149.996    c8.284,0,15-6.716,15-15C330.008,306.72,323.292,300.004,315.008,300.004z M30,165C30,90.563,90.566,30.004,165.012,30.004    c74.437,0,134.996,60.559,134.996,134.996c0,74.441-60.559,135.004-134.996,135.004C90.566,300.004,30,239.441,30,165z"
   style="fill:#c9ffff;fill-opacity:1" />
	</g>
	<g
   id="XMLID_929_"
   style="fill:#c9ffff;fill-opacity:1">
		<circle
   id="XMLID_930_"
   cx="165.004"
   cy="225.004"
   r="30"
   style="fill:#c9ffff;fill-opacity:1" />
	</g>
	<g
   id="XMLID_931_"
   style="fill:#c9ffff;fill-opacity:1">
		<circle
   id="XMLID_932_"
   cx="165.004"
   cy="105.004"
   r="30"
   style="fill:#c9ffff;fill-opacity:1" />
	</g>
	<g
   id="XMLID_933_"
   style="fill:#c9ffff;fill-opacity:1">
		<circle
   id="XMLID_934_"
   cx="105.004"
   cy="165.004"
   r="30"
   style="fill:#c9ffff;fill-opacity:1" />
	</g>
	<g
   id="XMLID_935_"
   style="fill:#c9ffff;fill-opacity:1">
		<circle
   id="XMLID_936_"
   cx="225.004"
   cy="165.004"
   r="30"
   style="fill:#c9ffff;fill-opacity:1" />
	</g>
</g>
<g
   id="g13">
</g>
<g
   id="g15">
</g>
<g
   id="g17">
</g>
<g
   id="g19">
</g>
<g
   id="g21">
</g>
<g
   id="g23">
</g>
<g
   id="g25">
</g>
<g
   id="g27">
</g>
<g
   id="g29">
</g>
<g
   id="g31">
</g>
<g
   id="g33">
</g>
<g
   id="g35">
</g>
<g
   id="g37">
</g>
<g
   id="g39">
</g>
<g
   id="g41">
</g>
<g
   id="g977"
   transform="matrix(0.22274852,0,0,0.22274852,-0.39642208,1.0019142)"><g
     id="g921">
	<path
   id="path919"
   d="M 143.027,0 C 64.031,0 0,64.04 0,143.027 c 0,78.996 64.031,143.027 143.027,143.027 78.996,0 143.027,-64.031 143.027,-143.027 C 286.054,64.04 222.022,0 143.027,0 Z m 0,259.236 c -64.183,0 -116.209,-52.026 -116.209,-116.209 0,-64.183 52.026,-116.209 116.209,-116.209 64.183,0 116.209,52.026 116.209,116.209 0,64.183 -52.026,116.209 -116.209,116.209 z m 30.205,-79.031 h -32.038 c 15.661,-18.459 40.852,-39.753 40.852,-63.736 0,-21.91 -16.564,-35.882 -39.216,-35.882 -22.661,0 -43.847,17.977 -43.847,39.717 0,6.731 4.604,12.586 13.445,12.586 17.691,0 8.108,-28.498 29.294,-28.498 7.554,0 13.266,6.204 13.266,13.284 0,6.204 -3.138,11.558 -6.454,16.046 -13.999,18.969 -30.581,34.496 -45.867,51.579 -1.841,2.065 -4.246,5.176 -4.246,8.796 0,7.938 6.266,11.38 14.365,11.38 h 61.528 c 6.999,0 13.266,-4.568 13.266,-12.497 0,-7.93 -6.249,-12.775 -14.348,-12.775 z"
   style="fill:#2394bc"
   inkscape:connector-curvature="0" />
</g><g
     id="g923">
</g><g
     id="g925">
</g><g
     id="g927">
</g><g
     id="g929">
</g><g
     id="g931">
</g><g
     id="g933">
</g><g
     id="g935">
</g><g
     id="g937">
</g><g
     id="g939">
</g><g
     id="g941">
</g><g
     id="g943">
</g><g
     id="g945">
</g><g
     id="g947">
</g><g
     id="g949">
</g><g
     id="g951">
</g></g></svg>